 <svg  viewBox="0 0 332 180" fill="none" xmlns="http://www.w3.org/2000/svg">
<rect x="26.5" y="1.5" width="277" height="177" rx="18.5" stroke="#DA3017" stroke-width="3" />
<circle cx="305.64" cy="90.6398" r="23.5" transform="rotate(-178.514 305.64 90.6398)" fill="#F2F2F2" stroke="#DA3017" stroke-width="3" />
<rect x="332" y="116" width="27" height="51" transform="rotate(180 332 116)" fill="#F2F2F2" />
<path d="M74.9863 0.993164L74.0136 178.999" stroke="#DA3017" stroke-width="3" stroke-dasharray="6 6" />
<circle cx="25" cy="93" r="23.5" fill="#F2F2F2" stroke="#DA3017" stroke-width="3" />
<rect y="68" width="25" height="50" fill="#F2F2F2" />
<path
    d="M105 91.4503V114.363C114.076 113.878 132.229 114.218 132.229 104.907C132.229 95.5963 114.076 90.7229 105 91.4503ZM105 91.4503V73.2654C112.857 72.1744 129.303 74.2111 132.229 83.8127C135.155 93.4142 115.296 91.5716 105 91.4503ZM169.057 114.363L145 110.279V93.8142M145 93.8142V78.2663L169.057 73.2655M145 93.8142H169.057M175 75.9932L197.318 78.2663M221 75.9932L197.318 78.2663M197.318 78.2663V118M214.451 118L222 99.6334M251 118L241.5 99.6334M241.5 99.6334L231 80.5394L222 99.6334M241.5 99.6334H222"
    stroke="#DA3017"
    stroke-width="10"
/>
</svg>